<svg width="30" height="27" viewBox="0 0 30 27" fill="none" xmlns="http://www.w3.org/2000/svg">
<path d="M26.1833 17.1568C25.8695 16.843 25.4438 16.6667 25 16.6667C24.5561 16.6667 24.1305 16.843 23.8166 17.1568C23.5028 17.4706 23.3265 17.8963 23.3265 18.3401C23.3265 18.784 23.5028 19.2096 23.8166 19.5235L24.3 20.0068H21.6666C19.8985 20.0068 18.2028 19.3044 16.9526 18.0542C15.7024 16.8039 15 15.1082 15 13.3401C15 11.572 15.7024 9.87634 16.9526 8.6261C18.2028 7.37586 19.8985 6.67348 21.6666 6.67348H24.3166L23.8166 7.15681C23.6604 7.31175 23.5364 7.49609 23.4518 7.69918C23.3672 7.90228 23.3236 8.12013 23.3236 8.34015C23.3236 8.56016 23.3672 8.77801 23.4518 8.98111C23.5364 9.1842 23.6604 9.36854 23.8166 9.52348C23.9724 9.67795 24.1571 9.80015 24.3601 9.88309C24.5632 9.96604 24.7806 10.0081 25 10.0068C25.2193 10.0081 25.4368 9.96604 25.6398 9.88309C25.8429 9.80015 26.0276 9.67795 26.1833 9.52348L29.5166 6.19015C29.6711 6.03441 29.7933 5.84972 29.8763 5.64666C29.9592 5.4436 30.0012 5.22616 30 5.00681C30.0012 4.78747 29.9592 4.57003 29.8763 4.36697C29.7933 4.16391 29.6711 3.97922 29.5166 3.82348L26.1833 0.490152C26.0279 0.334755 25.8434 0.211487 25.6404 0.127387C25.4374 0.0432865 25.2197 0 25 0C24.5561 0 24.1305 0.176313 23.8166 0.490152C23.5028 0.803992 23.3265 1.22965 23.3265 1.67348C23.3265 2.11732 23.5028 2.54298 23.8166 2.85682L24.3 3.34015H21.6666C20.0154 3.34136 18.3902 3.75142 16.9361 4.53374C15.482 5.31605 14.2442 6.44627 13.3333 7.82348C12.4224 6.44627 11.1846 5.31605 9.73052 4.53374C8.27641 3.75142 6.6512 3.34136 5 3.34015H1.66667C1.22464 3.34015 0.800715 3.51574 0.488155 3.82831C0.175595 4.14087 0 4.56479 0 5.00681C0 5.44884 0.175595 5.87276 0.488155 6.18532C0.800715 6.49788 1.22464 6.67348 1.66667 6.67348H5C6.7681 6.67348 8.46379 7.37586 9.71404 8.6261C10.9643 9.87634 11.6667 11.572 11.6667 13.3401C11.6667 15.1082 10.9643 16.8039 9.71404 18.0542C8.46379 19.3044 6.7681 20.0068 5 20.0068H1.66667C1.22464 20.0068 0.800715 20.1824 0.488155 20.495C0.175595 20.8075 0 21.2314 0 21.6735C0 22.1155 0.175595 22.5394 0.488155 22.852C0.800715 23.1645 1.22464 23.3401 1.66667 23.3401H5C6.6512 23.3389 8.27641 22.9289 9.73052 22.1465C11.1846 21.3642 12.4224 20.234 13.3333 18.8568C14.2442 20.234 15.482 21.3642 16.9361 22.1465C18.3902 22.9289 20.0154 23.3389 21.6666 23.3401H24.3166L23.8166 23.8235C23.6604 23.9784 23.5364 24.1627 23.4518 24.3658C23.3672 24.5689 23.3236 24.7868 23.3236 25.0068C23.3236 25.2268 23.3672 25.4447 23.4518 25.6478C23.5364 25.8509 23.6604 26.0352 23.8166 26.1901C23.9724 26.3446 24.1571 26.4668 24.3601 26.5497C24.5632 26.6327 24.7806 26.6747 25 26.6735C25.2193 26.6747 25.4368 26.6327 25.6398 26.5497C25.8429 26.4668 26.0276 26.3446 26.1833 26.1901L29.5166 22.8568C29.6711 22.7011 29.7933 22.5164 29.8763 22.3133C29.9592 22.1102 30.0012 21.8928 30 21.6735C30.0012 21.4541 29.9592 21.2367 29.8763 21.0336C29.7933 20.8306 29.6711 20.6459 29.5166 20.4901L26.1833 17.1568Z" fill="#BAA8ED"/>
</svg>
